<svg width="114" height="115" viewBox="0 0 114 115" fill="none" xmlns="http://www.w3.org/2000/svg">
<path d="M54.5503 35.2748C48.4063 35.9712 43.4071 38.7393 39.5527 43.5792C35.6982 48.4191 34.1192 53.911 34.8156 60.055C35.512 66.199 38.2801 71.1982 43.12 75.0527C47.9599 78.9071 53.4519 80.4861 59.5959 79.7897C65.7399 79.0933 70.7391 76.3252 74.5935 71.4853C78.4479 66.6454 80.027 61.1535 79.3306 55.0095C78.6342 48.8655 75.866 43.8663 71.0261 40.0118C66.1862 36.1574 60.6943 34.5784 54.5503 35.2748ZM42.8543 2.78531L58.9388 0.96221C59.5184 0.896512 60.1065 1.03533 60.7032 1.37865C61.2998 1.72197 61.6567 2.15118 61.7738 2.66627L65.3878 15.906C67.4888 16.3136 69.7965 16.9914 72.3109 17.9392C74.8697 15.6531 77.9069 12.6671 81.4225 8.98102C82.0141 8.50302 82.5707 8.23446 83.0923 8.17533C83.7879 8.0965 84.3615 8.23695 84.8132 8.59669C86.7032 9.73273 89.568 11.8297 93.4077 14.8875C97.2473 17.9454 99.2296 20.025 99.3544 21.1262C99.4266 21.7638 99.2928 22.3954 98.9527 23.021L92.2611 33.9064C93.6055 35.9262 94.7568 38.0559 95.7152 40.2956C102.047 40.2236 106.615 40.381 109.418 40.7678C110.855 41.0158 111.649 41.8064 111.8 43.1396L113.633 59.311C113.706 59.9486 113.554 60.5529 113.178 61.1238C112.803 61.6947 112.328 62.042 111.755 62.1657L98.6797 65.6731C98.3234 67.7096 97.6713 69.985 96.7235 72.4994L105.624 81.8816C106.076 82.2414 106.345 82.798 106.43 83.5515C106.502 84.1891 106.339 84.824 105.941 85.4562C99.1785 94.6765 95.0145 99.3753 93.4495 99.5527C92.9279 99.6119 92.3542 99.4714 91.7286 99.1314C90.8515 98.6437 89.1808 97.6296 86.7166 96.089C84.2524 94.5484 82.3302 93.3866 80.9499 92.6038C78.5507 94.226 76.2892 95.5097 74.1654 96.4549L73.5767 109.907C73.5845 110.493 73.365 111.017 72.9183 111.478C72.4716 111.94 71.9294 112.207 71.2919 112.279L55.2074 114.102C54.6277 114.168 54.0396 114.029 53.443 113.686C52.8464 113.343 52.4895 112.913 52.3724 112.398L48.7583 99.1585C46.6574 98.7509 44.3497 98.0731 41.8353 97.1253C39.2765 99.4114 36.2393 102.397 32.7237 106.083C32.1321 106.561 31.5755 106.83 31.0538 106.889C30.3583 106.968 29.7557 106.831 29.246 106.478C27.3626 105.4 24.5139 103.315 20.6999 100.225C16.886 97.1353 14.9166 95.0396 14.7918 93.9383C14.7195 93.3007 14.8534 92.6691 15.1934 92.0435L21.885 81.1581C20.6184 79.3056 19.438 77.1792 18.3441 74.7788C12.0119 74.8508 7.47323 74.6901 4.72813 74.2967C3.29105 74.0487 2.49696 73.2581 2.34585 71.9249L0.512895 55.7535C0.440628 55.1159 0.59229 54.5116 0.967878 53.9407C1.34347 53.3698 1.81779 53.0225 2.39084 52.8988L15.4665 49.3914C15.8228 47.355 16.4748 45.0795 17.4227 42.5651L8.52186 33.1829C8.06356 32.7652 7.795 32.2085 7.71616 31.513C7.64389 30.8754 7.80676 30.2405 8.20476 29.6083C14.9677 20.388 19.1316 15.6892 20.6966 15.5118C21.1603 15.4592 21.734 15.5997 22.4175 15.9331C23.4238 16.5236 25.1267 17.5634 27.5264 19.0526C29.926 20.5418 31.8127 21.6489 33.1864 22.3738C35.8175 20.7253 38.0823 19.4706 39.9807 18.6096L40.4825 5.1676C40.5327 4.57483 40.7812 4.04766 41.2279 3.58608C41.6746 3.12451 42.2167 2.85758 42.8543 2.78531Z" fill="#4D4D4D"/>
</svg>
