<svg width="130" height="130" viewBox="0 0 130 130" fill="none" xmlns="http://www.w3.org/2000/svg">
<mask id="path-1-outside-1_435_6" maskUnits="userSpaceOnUse" x="50" y="0" width="80" height="80" fill="black">
<rect fill="white" x="50" width="80" height="80"/>
<path d="M115 65C115 58.4339 113.707 51.9321 111.194 45.8658C108.681 39.7995 104.998 34.2876 100.355 29.6447C95.7124 25.0017 90.2004 21.3188 84.1342 18.806C78.0679 16.2933 71.5661 15 65 15L65 65H115Z"/>
</mask>
<path d="M115 65C115 58.4339 113.707 51.9321 111.194 45.8658C108.681 39.7995 104.998 34.2876 100.355 29.6447C95.7124 25.0017 90.2004 21.3188 84.1342 18.806C78.0679 16.2933 71.5661 15 65 15L65 65H115Z" stroke="#1D1D1D" stroke-width="30" mask="url(#path-1-outside-1_435_6)"/>
<mask id="path-2-outside-2_435_6" maskUnits="userSpaceOnUse" x="0" y="50" width="80" height="80" fill="black">
<rect fill="white" y="50" width="80" height="80"/>
<path d="M15 65C15 71.5661 16.2933 78.0679 18.806 84.1342C21.3188 90.2004 25.0017 95.7124 29.6447 100.355C34.2876 104.998 39.7995 108.681 45.8658 111.194C51.9321 113.707 58.4339 115 65 115V65L15 65Z"/>
</mask>
<path d="M15 65C15 71.5661 16.2933 78.0679 18.806 84.1342C21.3188 90.2004 25.0017 95.7124 29.6447 100.355C34.2876 104.998 39.7995 108.681 45.8658 111.194C51.9321 113.707 58.4339 115 65 115V65L15 65Z" stroke="#1D1D1D" stroke-width="30" mask="url(#path-2-outside-2_435_6)"/>
<circle cx="65" cy="65" r="50" fill="#2E2E2E"/>
</svg>
