<svg width="24" height="15" viewBox="0 0 24 15" fill="none" xmlns="http://www.w3.org/2000/svg">
<path d="M12.8987 14.685C12.7644 14.5855 12.6579 14.4672 12.5853 14.337C12.5126 14.2068 12.4752 14.0672 12.4752 13.9263C12.4752 13.7853 12.5126 13.6457 12.5853 13.5155C12.6579 13.3853 12.7644 13.2671 12.8987 13.1676L19.0762 8.57161L1.43972 8.57161C1.05788 8.57161 0.691685 8.45876 0.421686 8.25789C0.151687 8.05702 8.74408e-07 7.78458 8.74408e-07 7.50051C8.74408e-07 7.21643 0.151687 6.94399 0.421686 6.74312C0.691685 6.54225 1.05788 6.4294 1.43972 6.4294L19.0762 6.4294L12.8987 1.83167C12.6282 1.63045 12.4762 1.35753 12.4762 1.07297C12.4762 0.788398 12.6282 0.515485 12.8987 0.314265C13.1691 0.113044 13.536 2.99841e-09 13.9185 0C14.301 -2.99841e-09 14.6678 0.113044 14.9383 0.314265L23.5765 6.74091C23.7108 6.84042 23.8173 6.95866 23.8899 7.08886C23.9626 7.21905 24 7.35864 24 7.49961C24 7.64059 23.9626 7.78017 23.8899 7.91037C23.8173 8.04056 23.7108 8.15881 23.5765 8.25832L14.9383 14.685C14.8045 14.7848 14.6456 14.864 14.4706 14.9181C14.2956 14.9722 14.1079 15 13.9185 15C13.729 15 13.5413 14.9722 13.3663 14.9181C13.1913 14.864 13.0324 14.7848 12.8987 14.685Z" fill="#E7E7E7"/>
</svg>
