<svg width="32" height="33" viewBox="0 0 32 33" fill="none" xmlns="http://www.w3.org/2000/svg">
<rect x="0.443359" y="0.887695" width="30.8658" height="30.8658" rx="15.4329" fill="white"/>
<path d="M15.9785 0C13.8802 0 11.8024 0.434233 9.8638 1.27791C7.9252 2.12158 6.16374 3.35817 4.68 4.91708C1.68345 8.06543 0 12.3355 0 16.788C0 24.2082 4.58583 30.5037 10.9293 32.7365C11.7282 32.8708 11.9839 32.3504 11.9839 31.8971V29.0599C7.55784 30.0672 6.61511 26.8104 6.61511 26.8104C5.88009 24.863 4.84149 24.3425 4.84149 24.3425C3.38745 23.3017 4.95334 23.3353 4.95334 23.3353C6.55119 23.4528 7.39805 25.0644 7.39805 25.0644C8.78818 27.6162 11.137 26.8607 12.0478 26.4578C12.1916 25.3666 12.607 24.6279 13.0544 24.2082C9.50722 23.7885 5.78422 22.3448 5.78422 15.9486C5.78422 14.0851 6.39141 12.591 7.43001 11.399C7.27022 10.9793 6.71098 9.23337 7.58979 6.967C7.58979 6.967 8.93199 6.51373 11.9839 8.67937C13.2462 8.31004 14.6203 8.12537 15.9785 8.12537C17.3367 8.12537 18.7108 8.31004 19.9731 8.67937C23.025 6.51373 24.3672 6.967 24.3672 6.967C25.2461 9.23337 24.6868 10.9793 24.527 11.399C25.5656 12.591 26.1728 14.0851 26.1728 15.9486C26.1728 22.3616 22.4338 23.7717 18.8706 24.1914C19.4459 24.7119 19.9731 25.7359 19.9731 27.2972V31.8971C19.9731 32.3504 20.2288 32.8876 21.0437 32.7365C27.3872 30.4869 31.957 24.2082 31.957 16.788C31.957 14.5833 31.5437 12.4003 30.7407 10.3635C29.9377 8.32667 28.7608 6.47598 27.277 4.91708C25.7933 3.35817 24.0318 2.12158 22.0932 1.27791C20.1546 0.434233 18.0768 0 15.9785 0Z" fill="black"/>
</svg>
