<svg width="24" height="24" viewBox="0 0 24 24" fill="none" xmlns="http://www.w3.org/2000/svg">
<path fill-rule="evenodd" clip-rule="evenodd" d="M23.5451 2.64932C23.6892 2.50539 23.8035 2.33448 23.8816 2.14635C23.9596 1.95823 23.9999 1.75657 24 1.55289C24.0001 1.34921 23.9601 1.1475 23.8823 0.959281C23.8045 0.771059 23.6903 0.600009 23.5464 0.455899C23.4025 0.311789 23.2316 0.197439 23.0434 0.11938C22.8553 0.0413198 22.6537 0.00107852 22.45 0.000953335C22.2463 0.000828148 22.0446 0.0408215 21.8564 0.11865C21.6682 0.196478 21.4971 0.310618 21.353 0.454551L11.9998 9.80793L2.64928 0.454551C2.35824 0.163507 1.9635 -3.06665e-09 1.55191 0C1.14032 3.06665e-09 0.745583 0.163507 0.454544 0.454551C0.163504 0.745595 3.0666e-09 1.14034 0 1.55193C-3.0666e-09 1.96353 0.163504 2.35827 0.454544 2.64932L9.80777 12L0.454544 21.3507C0.310435 21.4948 0.196123 21.6659 0.118132 21.8542C0.0401411 22.0425 0 22.2443 0 22.4481C0 22.6519 0.0401411 22.8537 0.118132 23.042C0.196123 23.2302 0.310435 23.4013 0.454544 23.5454C0.745583 23.8365 1.14032 24 1.55191 24C1.75571 24 1.95751 23.9599 2.1458 23.8819C2.33409 23.8039 2.50517 23.6896 2.64928 23.5454L11.9998 14.1921L21.353 23.5454C21.6441 23.8361 22.0387 23.9993 22.45 23.999C22.8613 23.9988 23.2557 23.8351 23.5464 23.5441C23.8371 23.2531 24.0003 22.8585 24 22.4471C23.9997 22.0358 23.8361 21.6414 23.5451 21.3507L14.1918 12L23.5451 2.64932Z" fill="white"/>
</svg>
