<svg width="98" height="43" viewBox="0 0 98 43" fill="none" xmlns="http://www.w3.org/2000/svg">
<path d="M56.3888 19.6234C56.3497 19.4875 56.2948 19.3674 56.2241 19.2631C56.1533 19.157 56.0667 19.0676 55.9643 18.995C55.8638 18.9205 55.7484 18.8637 55.618 18.8246C55.4896 18.7856 55.3471 18.766 55.1908 18.766C54.8984 18.766 54.6415 18.8386 54.4199 18.9838C54.2003 19.1291 54.029 19.3404 53.9061 19.6178C53.7832 19.8933 53.7218 20.2303 53.7218 20.6288C53.7218 21.0272 53.7823 21.3661 53.9033 21.6453C54.0243 21.9246 54.1956 22.1378 54.4172 22.2849C54.6387 22.4301 54.9003 22.5027 55.2019 22.5027C55.4756 22.5027 55.7093 22.4543 55.9029 22.3575C56.0984 22.2588 56.2473 22.1201 56.3497 21.9414C56.454 21.7626 56.5061 21.5513 56.5061 21.3074L56.7519 21.3437H55.2773V20.4333H57.6707V21.1538C57.6707 21.6565 57.5646 22.0885 57.3523 22.4496C57.1401 22.809 56.8478 23.0864 56.4754 23.2819C56.1031 23.4755 55.6767 23.5723 55.1963 23.5723C54.6601 23.5723 54.1891 23.4541 53.7832 23.2177C53.3773 22.9793 53.0608 22.6414 52.8337 22.2039C52.6084 21.7645 52.4957 21.2432 52.4957 20.6399C52.4957 20.1763 52.5628 19.763 52.6968 19.4C52.8327 19.035 53.0226 18.726 53.2665 18.4728C53.5104 18.2196 53.7944 18.0269 54.1183 17.8947C54.4423 17.7625 54.7932 17.6964 55.1712 17.6964C55.4952 17.6964 55.7968 17.7439 56.0761 17.8388C56.3553 17.9319 56.603 18.0641 56.8189 18.2354C57.0368 18.4067 57.2146 18.6105 57.3523 18.847C57.4901 19.0816 57.5786 19.3404 57.6177 19.6234H56.3888ZM63.1688 23.5779C62.735 23.5779 62.3598 23.4858 62.0433 23.3014C61.7287 23.1153 61.4857 22.8565 61.3144 22.5251C61.1431 22.1918 61.0575 21.8055 61.0575 21.3661C61.0575 20.9229 61.1431 20.5357 61.3144 20.2043C61.4857 19.871 61.7287 19.6122 62.0433 19.4279C62.3598 19.2417 62.735 19.1486 63.1688 19.1486C63.6026 19.1486 63.9768 19.2417 64.2915 19.4279C64.608 19.6122 64.8519 19.871 65.0232 20.2043C65.1945 20.5357 65.2801 20.9229 65.2801 21.3661C65.2801 21.8055 65.1945 22.1918 65.0232 22.5251C64.8519 22.8565 64.608 23.1153 64.2915 23.3014C63.9768 23.4858 63.6026 23.5779 63.1688 23.5779ZM63.1744 22.6563C63.3717 22.6563 63.5365 22.6005 63.6687 22.4887C63.8009 22.3752 63.9005 22.2206 63.9675 22.0251C64.0364 21.8297 64.0709 21.6072 64.0709 21.3577C64.0709 21.1082 64.0364 20.8857 63.9675 20.6902C63.9005 20.4947 63.8009 20.3402 63.6687 20.2266C63.5365 20.113 63.3717 20.0563 63.1744 20.0563C62.9752 20.0563 62.8076 20.113 62.6717 20.2266C62.5376 20.3402 62.4362 20.4947 62.3673 20.6902C62.3002 20.8857 62.2667 21.1082 62.2667 21.3577C62.2667 21.6072 62.3002 21.8297 62.3673 22.0251C62.4362 22.2206 62.5376 22.3752 62.6717 22.4887C62.8076 22.6005 62.9752 22.6563 63.1744 22.6563ZM71.4785 21.6677V19.2045H72.6682V23.4941H71.526V22.715H71.4813C71.3845 22.9663 71.2234 23.1683 70.9981 23.321C70.7747 23.4737 70.5019 23.55 70.1798 23.55C69.8931 23.55 69.6408 23.4848 69.423 23.3545C69.2052 23.2242 69.0348 23.0389 68.9119 22.7987C68.7909 22.5586 68.7295 22.2709 68.7276 21.9358V19.2045H69.9173V21.7235C69.9192 21.9767 69.9871 22.1769 70.1212 22.324C70.2552 22.4711 70.4349 22.5446 70.6602 22.5446C70.8036 22.5446 70.9376 22.512 71.0624 22.4469C71.1871 22.3798 71.2876 22.2812 71.364 22.1508C71.4422 22.0205 71.4803 21.8594 71.4785 21.6677ZM78.5754 19.2045V20.0981H75.9921V19.2045H78.5754ZM76.5786 18.1767H77.7683V22.176C77.7683 22.2858 77.7851 22.3715 77.8186 22.4329C77.8521 22.4925 77.8986 22.5344 77.9582 22.5586C78.0196 22.5828 78.0904 22.5949 78.1705 22.5949C78.2263 22.5949 78.2822 22.5902 78.338 22.5809C78.3939 22.5697 78.4367 22.5614 78.4665 22.5558L78.6536 23.4411C78.594 23.4597 78.5102 23.4811 78.4023 23.5053C78.2943 23.5314 78.163 23.5472 78.0085 23.5528C77.7218 23.564 77.4704 23.5258 77.2544 23.4383C77.0403 23.3508 76.8737 23.2149 76.7545 23.0305C76.6354 22.8462 76.5767 22.6135 76.5786 22.3324V18.1767ZM83.2475 23.5751C82.9738 23.5751 82.7299 23.5277 82.5158 23.4327C82.3017 23.3359 82.1323 23.1935 82.0075 23.0054C81.8847 22.8155 81.8232 22.579 81.8232 22.296C81.8232 22.0577 81.867 21.8576 81.9545 21.6956C82.042 21.5336 82.1611 21.4033 82.3119 21.3046C82.4628 21.2059 82.634 21.1315 82.8258 21.0812C83.0194 21.0309 83.2224 20.9956 83.4346 20.9751C83.6841 20.949 83.8852 20.9248 84.0379 20.9025C84.1905 20.8783 84.3013 20.8429 84.3702 20.7963C84.4391 20.7498 84.4735 20.6809 84.4735 20.5897V20.5729C84.4735 20.396 84.4177 20.2592 84.306 20.1624C84.1961 20.0656 84.0397 20.0172 83.8368 20.0172C83.6227 20.0172 83.4523 20.0646 83.3257 20.1596C83.1991 20.2527 83.1153 20.37 83.0744 20.5115L81.974 20.4221C82.0299 20.1614 82.1397 19.9362 82.3036 19.7463C82.4674 19.5545 82.6787 19.4074 82.9375 19.305C83.1982 19.2007 83.4998 19.1486 83.8424 19.1486C84.0807 19.1486 84.3088 19.1765 84.5266 19.2324C84.7463 19.2882 84.9409 19.3748 85.1103 19.4921C85.2816 19.6094 85.4166 19.7602 85.5152 19.9445C85.6139 20.127 85.6633 20.3458 85.6633 20.6008V23.4941H84.535V22.8993H84.5015C84.4326 23.0333 84.3404 23.1516 84.225 23.254C84.1096 23.3545 83.9708 23.4336 83.8089 23.4913C83.6469 23.5472 83.4598 23.5751 83.2475 23.5751ZM83.5882 22.7541C83.7633 22.7541 83.9178 22.7196 84.0518 22.6507C84.1859 22.58 84.2911 22.485 84.3674 22.3659C84.4438 22.2467 84.4819 22.1117 84.4819 21.9609V21.5057C84.4447 21.5299 84.3935 21.5522 84.3283 21.5727C84.265 21.5913 84.1933 21.609 84.1133 21.6258C84.0332 21.6407 83.9532 21.6546 83.8731 21.6677C83.793 21.6788 83.7204 21.6891 83.6553 21.6984C83.5156 21.7189 83.3937 21.7515 83.2894 21.7961C83.1852 21.8408 83.1042 21.9013 83.0464 21.9777C82.9887 22.0521 82.9599 22.1452 82.9599 22.2569C82.9599 22.4189 83.0185 22.5427 83.1358 22.6284C83.255 22.7122 83.4058 22.7541 83.5882 22.7541ZM89.2602 23.4941V19.2045H90.394V19.9613H90.4443C90.5337 19.71 90.6826 19.5117 90.8911 19.3664C91.0997 19.2212 91.3491 19.1486 91.6396 19.1486C91.9338 19.1486 92.1842 19.2222 92.3908 19.3692C92.5975 19.5145 92.7353 19.7118 92.8042 19.9613H92.8489C92.9364 19.7155 93.0946 19.5191 93.3236 19.372C93.5545 19.2231 93.8273 19.1486 94.1419 19.1486C94.5422 19.1486 94.8671 19.2761 95.1166 19.5312C95.3679 19.7844 95.4936 20.1438 95.4936 20.6092V23.4941H94.3067V20.8438C94.3067 20.6055 94.2434 20.4268 94.1168 20.3076C93.9902 20.1884 93.8319 20.1289 93.642 20.1289C93.426 20.1289 93.2575 20.1978 93.1365 20.3355C93.0155 20.4714 92.955 20.6511 92.955 20.8745V23.4941H91.8016V20.8187C91.8016 20.6083 91.7411 20.4407 91.62 20.316C91.5009 20.1912 91.3436 20.1289 91.1481 20.1289C91.0159 20.1289 90.8967 20.1624 90.7906 20.2294C90.6863 20.2946 90.6035 20.3867 90.542 20.5059C90.4806 20.6232 90.4499 20.761 90.4499 20.9192V23.4941H89.2602ZM53.2222 33.4941V27.7746H54.4315V30.2964H54.5069L56.5651 27.7746H58.0146L55.8921 30.3355L58.0397 33.4941H56.5931L55.0263 31.1426L54.4315 31.8688V33.4941H53.2222ZM62.4856 31.0142V33.4941H61.2959V27.7746H62.4521V29.9613H62.5024C62.5992 29.7081 62.7556 29.5098 62.9716 29.3664C63.1875 29.2212 63.4584 29.1486 63.7842 29.1486C64.0821 29.1486 64.3419 29.2138 64.5634 29.3441C64.7868 29.4726 64.96 29.6578 65.0829 29.8999C65.2076 30.14 65.2691 30.4277 65.2672 30.7628V33.4941H64.0775V30.9751C64.0793 30.7107 64.0123 30.505 63.8764 30.3579C63.7424 30.2108 63.5543 30.1372 63.3123 30.1372C63.1503 30.1372 63.0069 30.1717 62.8822 30.2406C62.7593 30.3095 62.6625 30.41 62.5917 30.5422C62.5229 30.6725 62.4875 30.8298 62.4856 31.0142ZM70.1006 33.5751C69.8269 33.5751 69.583 33.5277 69.3689 33.4327C69.1548 33.3359 68.9854 33.1935 68.8606 33.0054C68.7377 32.8155 68.6763 32.579 68.6763 32.296C68.6763 32.0577 68.72 31.8576 68.8076 31.6956C68.8951 31.5336 69.0142 31.4033 69.165 31.3046C69.3158 31.2059 69.4871 31.1315 69.6789 31.0812C69.8725 31.0309 70.0755 30.9956 70.2877 30.9751C70.5372 30.949 70.7383 30.9248 70.891 30.9025C71.0436 30.8783 71.1544 30.8429 71.2233 30.7963C71.2922 30.7498 71.3266 30.6809 71.3266 30.5897V30.5729C71.3266 30.396 71.2708 30.2592 71.1591 30.1624C71.0492 30.0656 70.8928 30.0172 70.6899 30.0172C70.4758 30.0172 70.3054 30.0646 70.1788 30.1596C70.0522 30.2527 69.9684 30.37 69.9274 30.5115L68.8271 30.4221C68.883 30.1614 68.9928 29.9362 69.1566 29.7463C69.3205 29.5545 69.5318 29.4074 69.7906 29.305C70.0513 29.2007 70.3529 29.1486 70.6955 29.1486C70.9338 29.1486 71.1618 29.1765 71.3797 29.2324C71.5994 29.2882 71.7939 29.3748 71.9634 29.4921C72.1347 29.6094 72.2696 29.7602 72.3683 29.9445C72.467 30.127 72.5163 30.3458 72.5163 30.6008V33.4941H71.3881V32.8993H71.3545C71.2857 33.0333 71.1935 33.1516 71.0781 33.254C70.9626 33.3545 70.8239 33.4336 70.6619 33.4913C70.5 33.5472 70.3128 33.5751 70.1006 33.5751ZM70.4413 32.7541C70.6163 32.7541 70.7709 32.7196 70.9049 32.6507C71.039 32.58 71.1442 32.485 71.2205 32.3659C71.2968 32.2467 71.335 32.1117 71.335 31.9609V31.5057C71.2978 31.5299 71.2466 31.5522 71.1814 31.5727C71.1181 31.5913 71.0464 31.609 70.9664 31.6258C70.8863 31.6407 70.8062 31.6546 70.7262 31.6677C70.6461 31.6788 70.5735 31.6891 70.5083 31.6984C70.3687 31.7189 70.2468 31.7515 70.1425 31.7961C70.0382 31.8408 69.9572 31.9013 69.8995 31.9777C69.8418 32.0521 69.8129 32.1452 69.8129 32.2569C69.8129 32.4189 69.8716 32.5427 69.9889 32.6284C70.108 32.7122 70.2589 32.7541 70.4413 32.7541ZM77.303 31.0142V33.4941H76.1132V29.2045H77.2471V29.9613H77.2974C77.3923 29.7118 77.5515 29.5145 77.7749 29.3692C77.9984 29.2222 78.2693 29.1486 78.5876 29.1486C78.8855 29.1486 79.1452 29.2138 79.3668 29.3441C79.5884 29.4744 79.7606 29.6606 79.8835 29.9027C80.0063 30.1428 80.0678 30.4296 80.0678 30.7628V33.4941H78.8781V30.9751C78.8799 30.7126 78.8129 30.5078 78.677 30.3607C78.5411 30.2117 78.354 30.1372 78.1157 30.1372C77.9555 30.1372 77.814 30.1717 77.6912 30.2406C77.5701 30.3095 77.4752 30.41 77.4063 30.5422C77.3393 30.6725 77.3048 30.8298 77.303 31.0142ZM84.8691 31.0142V33.4941H83.6794V29.2045H84.8132V29.9613H84.8635C84.9584 29.7118 85.1176 29.5145 85.341 29.3692C85.5645 29.2222 85.8354 29.1486 86.1537 29.1486C86.4516 29.1486 86.7114 29.2138 86.9329 29.3441C87.1545 29.4744 87.3267 29.6606 87.4496 29.9027C87.5725 30.1428 87.6339 30.4296 87.6339 30.7628V33.4941H86.4442V30.9751C86.446 30.7126 86.379 30.5078 86.2431 30.3607C86.1072 30.2117 85.9201 30.1372 85.6818 30.1372C85.5216 30.1372 85.3801 30.1717 85.2573 30.2406C85.1362 30.3095 85.0413 30.41 84.9724 30.5422C84.9054 30.6725 84.8709 30.8298 84.8691 31.0142ZM92.4687 33.5751C92.195 33.5751 91.9511 33.5277 91.737 33.4327C91.5229 33.3359 91.3535 33.1935 91.2287 33.0054C91.1058 32.8155 91.0444 32.579 91.0444 32.296C91.0444 32.0577 91.0881 31.8576 91.1756 31.6956C91.2632 31.5336 91.3823 31.4033 91.5331 31.3046C91.6839 31.2059 91.8552 31.1315 92.047 31.0812C92.2406 31.0309 92.4436 30.9956 92.6558 30.9751C92.9053 30.949 93.1064 30.9248 93.259 30.9025C93.4117 30.8783 93.5225 30.8429 93.5914 30.7963C93.6603 30.7498 93.6947 30.6809 93.6947 30.5897V30.5729C93.6947 30.396 93.6389 30.2592 93.5271 30.1624C93.4173 30.0656 93.2609 30.0172 93.058 30.0172C92.8439 30.0172 92.6735 30.0646 92.5469 30.1596C92.4203 30.2527 92.3365 30.37 92.2955 30.5115L91.1952 30.4221C91.251 30.1614 91.3609 29.9362 91.5247 29.7463C91.6886 29.5545 91.8999 29.4074 92.1587 29.305C92.4194 29.2007 92.721 29.1486 93.0635 29.1486C93.3019 29.1486 93.5299 29.1765 93.7478 29.2324C93.9675 29.2882 94.162 29.3748 94.3315 29.4921C94.5028 29.6094 94.6377 29.7602 94.7364 29.9445C94.8351 30.127 94.8844 30.3458 94.8844 30.6008V33.4941H93.7562V32.8993H93.7226C93.6538 33.0333 93.5616 33.1516 93.4462 33.254C93.3307 33.3545 93.192 33.4336 93.03 33.4913C92.8681 33.5472 92.6809 33.5751 92.4687 33.5751ZM92.8094 32.7541C92.9844 32.7541 93.139 32.7196 93.273 32.6507C93.4071 32.58 93.5123 32.485 93.5886 32.3659C93.6649 32.2467 93.7031 32.1117 93.7031 31.9609V31.5057C93.6659 31.5299 93.6147 31.5522 93.5495 31.5727C93.4862 31.5913 93.4145 31.609 93.3344 31.6258C93.2544 31.6407 93.1743 31.6546 93.0943 31.6677C93.0142 31.6788 92.9416 31.6891 92.8764 31.6984C92.7368 31.7189 92.6148 31.7515 92.5106 31.7961C92.4063 31.8408 92.3253 31.9013 92.2676 31.9777C92.2099 32.0521 92.181 32.1452 92.181 32.2569C92.181 32.4189 92.2397 32.5427 92.357 32.6284C92.4761 32.7122 92.6269 32.7541 92.8094 32.7541Z" fill="#DBDBDB"/>
<path d="M21.5038 26.9404C21.7792 23.4284 24.3224 21.863 27.2012 21.863H28.1199C32.7948 21.8775 37.4743 21.815 42.1492 21.863L42.1481 30.613C42.1513 32.1165 41.8576 33.6057 41.2837 34.9954C40.7099 36.385 39.8672 37.6476 38.8042 38.7107C37.7411 39.7737 36.4785 40.6164 35.0889 41.1902C33.6993 41.7641 32.21 42.0578 30.7066 42.0546H12.4416C10.9382 42.0578 9.44905 41.7641 8.05951 41.1903C6.66997 40.6166 5.40743 39.774 4.34436 38.711C3.28128 37.6481 2.43861 36.3856 1.86469 34.9961C1.29078 33.6067 0.996938 32.1175 1.00002 30.6142V1.07376H10.0377C11.5414 1.07023 13.0309 1.36375 14.4207 1.93747C15.8106 2.51118 17.0735 3.35379 18.1368 4.41691C19.2001 5.48003 20.043 6.74272 20.617 8.13247C21.1909 9.52223 21.4848 11.0117 21.4815 12.5153V26.3328C21.4815 30.2986 24.1529 32.0524 27.2012 32.0524H41.7066" fill="white"/>
<path d="M21.5038 26.9404C21.7792 23.4284 24.3224 21.863 27.2012 21.863H28.1199C32.7948 21.8775 37.4743 21.815 42.1492 21.863L42.1481 30.613C42.1513 32.1165 41.8576 33.6057 41.2837 34.9954C40.7099 36.385 39.8672 37.6476 38.8042 38.7107C37.7411 39.7737 36.4785 40.6164 35.0889 41.1902C33.6993 41.7641 32.21 42.0578 30.7066 42.0546H12.4416C10.9382 42.0578 9.44905 41.7641 8.05951 41.1903C6.66997 40.6166 5.40743 39.774 4.34436 38.711C3.28128 37.6481 2.43861 36.3856 1.86469 34.9961C1.29078 33.6067 0.996938 32.1175 1.00002 30.6142V1.07376H10.0377C11.5414 1.07023 13.0309 1.36375 14.4207 1.93747C15.8106 2.51118 17.0735 3.35379 18.1368 4.41691C19.2001 5.48003 20.043 6.74272 20.617 8.13247C21.1909 9.52223 21.4848 11.0117 21.4815 12.5153V26.3328C21.4815 30.2986 24.1529 32.0524 27.2012 32.0524H41.7066" stroke="#5D8366" stroke-linecap="round" stroke-linejoin="round"/>
<path d="M22.8083 42.0546C21.3051 42.0575 19.8162 41.7636 18.4269 41.1897C17.0376 40.6158 15.7754 39.7732 14.7125 38.7103C13.6497 37.6473 12.8072 36.385 12.2334 34.9956C11.6597 33.6063 11.3659 32.1173 11.369 30.6142V15.5257C11.369 13.1486 9.48248 11.2354 7.10654 11.2354H1" fill="white"/>
<path d="M22.8083 42.0546C21.3051 42.0575 19.8162 41.7636 18.4269 41.1897C17.0376 40.6158 15.7754 39.7732 14.7125 38.7103C13.6497 37.6473 12.8072 36.385 12.2334 34.9956C11.6597 33.6063 11.3659 32.1173 11.369 30.6142V15.5257C11.369 13.1486 9.48248 11.2354 7.10654 11.2354H1" stroke="#5D8366" stroke-linecap="round" stroke-linejoin="round"/>
<path d="M36.0264 1.00002C34.5231 0.996938 33.0341 1.29075 31.6447 1.86459C30.2553 2.43843 28.9929 3.28101 27.9299 4.34397C26.8669 5.40692 26.0244 6.66933 25.4505 8.05874C24.8767 9.44815 24.5829 10.9372 24.586 12.4404V18.8558H30.8107C32.314 18.8591 33.8032 18.5654 35.1927 17.9916C36.5823 17.4178 37.8448 16.5753 38.9079 15.5123C39.971 14.4493 40.8136 13.1869 41.3876 11.7974C41.9615 10.4079 42.2553 8.91874 42.2522 7.4154V1.00114L36.0264 1.00002Z" fill="white" stroke="#5D8366" stroke-linecap="round" stroke-linejoin="round"/>
<path d="M27.3184 18.8568C28.8218 18.86 30.3111 18.5663 31.7007 17.9924C33.0903 17.4186 34.3529 16.5759 35.416 15.5128C36.479 14.4498 37.3217 13.1872 37.8955 11.7976C38.4694 10.4079 38.7631 8.91867 38.7599 7.41524V1.00098" fill="white"/>
<path d="M27.3184 18.8568C28.8218 18.86 30.3111 18.5663 31.7007 17.9924C33.0903 17.4186 34.3529 16.5759 35.416 15.5128C36.479 14.4498 37.3217 13.1872 37.8955 11.7976C38.4694 10.4079 38.7631 8.91867 38.7599 7.41524V1.00098" stroke="#5D8366" stroke-linecap="round" stroke-linejoin="round"/>
</svg>
