<svg width="111" height="49" viewBox="0 0 111 49" fill="none" xmlns="http://www.w3.org/2000/svg">
<path d="M62.5845 22.4368C62.5064 22.1977 62.4034 21.9834 62.2756 21.794C62.1501 21.6023 61.9998 21.4389 61.8246 21.304C61.6518 21.169 61.4553 21.066 61.2351 20.995C61.0149 20.924 60.7734 20.8885 60.5107 20.8885C60.0798 20.8885 59.688 20.9997 59.3352 21.2223C58.9825 21.4448 58.7019 21.7727 58.4936 22.2059C58.2853 22.6392 58.1811 23.1707 58.1811 23.8004C58.1811 24.4301 58.2865 24.9616 58.4972 25.3949C58.7079 25.8281 58.9931 26.156 59.353 26.3785C59.7128 26.6011 60.1177 26.7123 60.5675 26.7123C60.9841 26.7123 61.3511 26.6236 61.6683 26.446C61.9879 26.2661 62.2365 26.0128 62.4141 25.6861C62.594 25.357 62.684 24.9699 62.684 24.5248L62.9538 24.5817H60.7663V23.8004H63.5362V24.5817C63.5362 25.1806 63.4084 25.7014 63.1527 26.1442C62.8994 26.5869 62.549 26.9301 62.1016 27.174C61.6565 27.4155 61.1451 27.5362 60.5675 27.5362C59.9235 27.5362 59.3577 27.3847 58.87 27.0817C58.3847 26.7786 58.0059 26.3478 57.7337 25.789C57.4638 25.2303 57.3288 24.5674 57.3288 23.8004C57.3288 23.2251 57.4058 22.7078 57.5597 22.2486C57.7159 21.7869 57.9361 21.3939 58.2202 21.0696C58.5043 20.7452 58.8404 20.4967 59.2287 20.3238C59.617 20.151 60.0443 20.0646 60.5107 20.0646C60.8942 20.0646 61.2517 20.1226 61.5831 20.2386C61.9169 20.3523 62.214 20.5144 62.4744 20.7251C62.7372 20.9335 62.9562 21.1832 63.1314 21.4744C63.3066 21.7632 63.4273 22.084 63.4936 22.4368H62.5845ZM70.5468 27.5504C70.0544 27.5504 69.6224 27.4332 69.2507 27.1988C68.8814 26.9645 68.5925 26.6366 68.3842 26.2152C68.1782 25.7938 68.0753 25.3014 68.0753 24.7379C68.0753 24.1697 68.1782 23.6737 68.3842 23.25C68.5925 22.8262 68.8814 22.4971 69.2507 22.2628C69.6224 22.0284 70.0544 21.9112 70.5468 21.9112C71.0393 21.9112 71.4701 22.0284 71.8395 22.2628C72.2111 22.4971 72.5 22.8262 72.7059 23.25C72.9143 23.6737 73.0184 24.1697 73.0184 24.7379C73.0184 25.3014 72.9143 25.7938 72.7059 26.2152C72.5 26.6366 72.2111 26.9645 71.8395 27.1988C71.4701 27.4332 71.0393 27.5504 70.5468 27.5504ZM70.5468 26.7976C70.9209 26.7976 71.2287 26.7017 71.4701 26.5099C71.7116 26.3182 71.8904 26.066 72.0064 25.7535C72.1224 25.441 72.1804 25.1025 72.1804 24.7379C72.1804 24.3733 72.1224 24.0336 72.0064 23.7187C71.8904 23.4039 71.7116 23.1494 71.4701 22.9552C71.2287 22.7611 70.9209 22.664 70.5468 22.664C70.1728 22.664 69.865 22.7611 69.6235 22.9552C69.3821 23.1494 69.2033 23.4039 69.0873 23.7187C68.9713 24.0336 68.9133 24.3733 68.9133 24.7379C68.9133 25.1025 68.9713 25.441 69.0873 25.7535C69.2033 26.066 69.3821 26.3182 69.6235 26.5099C69.865 26.7017 70.1728 26.7976 70.5468 26.7976ZM81.1352 25.2067V21.9822H81.9733V27.4368H81.1352V26.5135H81.0784C80.9506 26.7905 80.7517 27.026 80.4818 27.2201C80.2119 27.4119 79.871 27.5078 79.4591 27.5078C79.1182 27.5078 78.8152 27.4332 78.55 27.2841C78.2848 27.1326 78.0765 26.9053 77.925 26.6023C77.7735 26.2969 77.6977 25.9121 77.6977 25.4481V21.9822H78.5358V25.3913C78.5358 25.789 78.6471 26.1063 78.8696 26.343C79.0945 26.5798 79.381 26.6981 79.729 26.6981C79.9373 26.6981 80.1492 26.6449 80.3646 26.5383C80.5824 26.4318 80.7647 26.2684 80.9115 26.0483C81.0607 25.8281 81.1352 25.5476 81.1352 25.2067ZM89.2804 21.9822V22.6924H86.4537V21.9822H89.2804ZM87.2776 20.6754H88.1157V25.8743C88.1157 26.111 88.15 26.2886 88.2186 26.4069C88.2897 26.5229 88.3796 26.6011 88.4885 26.6413C88.5998 26.6792 88.717 26.6981 88.8401 26.6981C88.9324 26.6981 89.0082 26.6934 89.0674 26.6839C89.1266 26.6721 89.1739 26.6626 89.2094 26.6555L89.3799 27.4084C89.323 27.4297 89.2437 27.451 89.1419 27.4723C89.0401 27.496 88.9111 27.5078 88.7549 27.5078C88.5181 27.5078 88.2861 27.4569 88.0588 27.3551C87.8339 27.2533 87.6469 27.0982 87.4978 26.8899C87.351 26.6816 87.2776 26.4188 87.2776 26.1015V20.6754ZM95.5462 27.5646C95.2006 27.5646 94.8869 27.4995 94.6051 27.3693C94.3234 27.2367 94.0997 27.0461 93.934 26.7976C93.7683 26.5466 93.6854 26.2436 93.6854 25.8885C93.6854 25.576 93.747 25.3227 93.8701 25.1285C93.9932 24.932 94.1577 24.7781 94.3637 24.6669C94.5696 24.5556 94.7969 24.4728 95.0455 24.4183C95.2964 24.3615 95.5486 24.3165 95.8019 24.2834C96.1333 24.2407 96.402 24.2088 96.608 24.1875C96.8163 24.1638 96.9678 24.1247 97.0625 24.0703C97.1596 24.0158 97.2081 23.9211 97.2081 23.7862V23.7578C97.2081 23.4074 97.1123 23.1352 96.9205 22.941C96.7311 22.7469 96.4435 22.6498 96.0576 22.6498C95.6575 22.6498 95.3438 22.7374 95.1165 22.9126C94.8892 23.0878 94.7294 23.2748 94.6371 23.4737L93.8417 23.1896C93.9837 22.8582 94.1731 22.6001 94.4098 22.4155C94.6489 22.2284 94.9094 22.0982 95.1911 22.0248C95.4752 21.9491 95.7545 21.9112 96.0292 21.9112C96.2043 21.9112 96.4056 21.9325 96.6328 21.9751C96.8625 22.0154 97.0838 22.0994 97.2969 22.2273C97.5123 22.3551 97.6911 22.548 97.8331 22.8061C97.9752 23.0641 98.0462 23.4098 98.0462 23.843V27.4368H97.2081V26.6981H97.1655C97.1087 26.8165 97.014 26.9432 96.8814 27.0781C96.7489 27.213 96.5725 27.3279 96.3523 27.4226C96.1321 27.5173 95.8634 27.5646 95.5462 27.5646ZM95.674 26.8118C96.0055 26.8118 96.2848 26.7467 96.5121 26.6165C96.7418 26.4862 96.9146 26.3182 97.0306 26.1122C97.1489 25.9062 97.2081 25.6896 97.2081 25.4623V24.6953C97.1726 24.7379 97.0945 24.777 96.9738 24.8125C96.8554 24.8456 96.7181 24.8752 96.5618 24.9013C96.4079 24.9249 96.2576 24.9462 96.1108 24.9652C95.9664 24.9817 95.8492 24.996 95.7593 25.0078C95.5415 25.0362 95.3379 25.0824 95.1485 25.1463C94.9614 25.2078 94.8099 25.3014 94.6939 25.4268C94.5803 25.5499 94.5235 25.718 94.5235 25.9311C94.5235 26.2223 94.6312 26.4424 94.8466 26.5916C95.0644 26.7384 95.3402 26.8118 95.674 26.8118ZM102.976 27.4368V21.9822H103.786V22.8345H103.857C103.97 22.5433 104.154 22.3172 104.407 22.1562C104.66 21.9929 104.964 21.9112 105.32 21.9112C105.679 21.9112 105.979 21.9929 106.218 22.1562C106.46 22.3172 106.648 22.5433 106.783 22.8345H106.839C106.979 22.5528 107.189 22.329 107.468 22.1633C107.747 21.9952 108.082 21.9112 108.473 21.9112C108.961 21.9112 109.36 22.0639 109.67 22.3693C109.98 22.6723 110.135 23.1446 110.135 23.7862V27.4368H109.297V23.7862C109.297 23.3837 109.187 23.0961 108.967 22.9233C108.746 22.7505 108.487 22.664 108.189 22.664C107.805 22.664 107.508 22.78 107.298 23.0121C107.087 23.2417 106.982 23.5329 106.982 23.8856V27.4368H106.129V23.701C106.129 23.3908 106.029 23.1411 105.827 22.9517C105.626 22.7599 105.367 22.664 105.05 22.664C104.832 22.664 104.628 22.722 104.439 22.838C104.252 22.954 104.1 23.115 103.984 23.321C103.871 23.5246 103.814 23.7602 103.814 24.0277V27.4368H102.976ZM58.4967 39.4368V32.164H59.3774V35.772H59.4626L62.7297 32.164H63.8802L60.8263 35.4453L63.8802 39.4368H62.8149L60.2865 36.0561L59.3774 37.0788V39.4368H58.4967ZM69.1446 36.1555V39.4368H68.3065V32.164H69.1446V34.8345H69.2156C69.3434 34.5528 69.5352 34.329 69.7909 34.1633C70.0489 33.9952 70.3922 33.9112 70.8207 33.9112C71.1924 33.9112 71.5179 33.9858 71.7973 34.1349C72.0766 34.2817 72.2933 34.5078 72.4471 34.8132C72.6034 35.1162 72.6815 35.5021 72.6815 35.9709V39.4368H71.8435V36.0277C71.8435 35.5944 71.731 35.2594 71.5061 35.0227C71.2836 34.7836 70.9746 34.664 70.5792 34.664C70.3046 34.664 70.0584 34.722 69.8406 34.838C69.6252 34.954 69.4547 35.1233 69.3292 35.3459C69.2061 35.5684 69.1446 35.8383 69.1446 36.1555ZM79.2198 39.5646C78.8742 39.5646 78.5605 39.4995 78.2788 39.3693C77.9971 39.2367 77.7733 39.0461 77.6076 38.7976C77.4419 38.5466 77.359 38.2436 77.359 37.8885C77.359 37.576 77.4206 37.3227 77.5437 37.1285C77.6668 36.932 77.8313 36.7781 78.0373 36.6669C78.2433 36.5556 78.4705 36.4728 78.7191 36.4183C78.9701 36.3615 79.2222 36.3165 79.4755 36.2834C79.807 36.2407 80.0757 36.2088 80.2816 36.1875C80.49 36.1638 80.6415 36.1247 80.7362 36.0703C80.8332 36.0158 80.8818 35.9211 80.8818 35.7862V35.7578C80.8818 35.4074 80.7859 35.1352 80.5941 34.941C80.4047 34.7469 80.1171 34.6498 79.7312 34.6498C79.3311 34.6498 79.0174 34.7374 78.7901 34.9126C78.5629 35.0878 78.4031 35.2748 78.3107 35.4737L77.5153 35.1896C77.6573 34.8582 77.8467 34.6001 78.0835 34.4155C78.3226 34.2284 78.583 34.0982 78.8647 34.0248C79.1488 33.9491 79.4282 33.9112 79.7028 33.9112C79.878 33.9112 80.0792 33.9325 80.3065 33.9751C80.5361 34.0154 80.7575 34.0994 80.9705 34.2273C81.186 34.3551 81.3647 34.548 81.5068 34.8061C81.6488 35.0641 81.7198 35.4098 81.7198 35.843V39.4368H80.8818V38.6981H80.8392C80.7823 38.8165 80.6876 38.9432 80.5551 39.0781C80.4225 39.213 80.2461 39.3279 80.0259 39.4226C79.8058 39.5173 79.5371 39.5646 79.2198 39.5646ZM79.3477 38.8118C79.6791 38.8118 79.9585 38.7467 80.1857 38.6165C80.4154 38.4862 80.5882 38.3182 80.7042 38.1122C80.8226 37.9062 80.8818 37.6896 80.8818 37.4623V36.6953C80.8463 36.7379 80.7681 36.777 80.6474 36.8125C80.529 36.8456 80.3917 36.8752 80.2355 36.9013C80.0816 36.9249 79.9312 36.9462 79.7845 36.9652C79.6401 36.9817 79.5229 36.996 79.4329 37.0078C79.2151 37.0362 79.0115 37.0824 78.8221 37.1463C78.6351 37.2078 78.4836 37.3014 78.3676 37.4268C78.2539 37.5499 78.1971 37.718 78.1971 37.9311C78.1971 38.2223 78.3048 38.4424 78.5203 38.5916C78.7381 38.7384 79.0139 38.8118 79.3477 38.8118ZM87.4876 36.1555V39.4368H86.6495V33.9822H87.4591V34.8345H87.5302C87.658 34.5575 87.8521 34.335 88.1126 34.1669C88.373 33.9964 88.7091 33.9112 89.1211 33.9112C89.4904 33.9112 89.8136 33.987 90.0905 34.1385C90.3675 34.2876 90.583 34.5149 90.7368 34.8203C90.8907 35.1233 90.9677 35.5068 90.9677 35.9709V39.4368H90.1296V36.0277C90.1296 35.5992 90.0183 35.2654 89.7958 35.0263C89.5733 34.7848 89.2679 34.664 88.8796 34.664C88.6121 34.664 88.373 34.722 88.1623 34.838C87.9539 34.954 87.7894 35.1233 87.6687 35.3459C87.5479 35.5684 87.4876 35.8383 87.4876 36.1555ZM96.7372 36.1555V39.4368H95.8991V33.9822H96.7088V34.8345H96.7798C96.9076 34.5575 97.1017 34.335 97.3622 34.1669C97.6226 33.9964 97.9588 33.9112 98.3707 33.9112C98.74 33.9112 99.0632 33.987 99.3401 34.1385C99.6171 34.2876 99.8326 34.5149 99.9865 34.8203C100.14 35.1233 100.217 35.5068 100.217 35.9709V39.4368H99.3792V36.0277C99.3792 35.5992 99.2679 35.2654 99.0454 35.0263C98.8229 34.7848 98.5175 34.664 98.1292 34.664C97.8617 34.664 97.6226 34.722 97.4119 34.838C97.2035 34.954 97.039 35.1233 96.9183 35.3459C96.7975 35.5684 96.7372 35.8383 96.7372 36.1555ZM106.754 39.5646C106.408 39.5646 106.094 39.4995 105.813 39.3693C105.531 39.2367 105.307 39.0461 105.142 38.7976C104.976 38.5466 104.893 38.2436 104.893 37.8885C104.893 37.576 104.955 37.3227 105.078 37.1285C105.201 36.932 105.365 36.7781 105.571 36.6669C105.777 36.5556 106.005 36.4728 106.253 36.4183C106.504 36.3615 106.756 36.3165 107.01 36.2834C107.341 36.2407 107.61 36.2088 107.816 36.1875C108.024 36.1638 108.175 36.1247 108.27 36.0703C108.367 36.0158 108.416 35.9211 108.416 35.7862V35.7578C108.416 35.4074 108.32 35.1352 108.128 34.941C107.939 34.7469 107.651 34.6498 107.265 34.6498C106.865 34.6498 106.551 34.7374 106.324 34.9126C106.097 35.0878 105.937 35.2748 105.845 35.4737L105.049 35.1896C105.191 34.8582 105.381 34.6001 105.617 34.4155C105.857 34.2284 106.117 34.0982 106.399 34.0248C106.683 33.9491 106.962 33.9112 107.237 33.9112C107.412 33.9112 107.613 33.9325 107.84 33.9751C108.07 34.0154 108.291 34.0994 108.505 34.2273C108.72 34.3551 108.899 34.548 109.041 34.8061C109.183 35.0641 109.254 35.4098 109.254 35.843V39.4368H108.416V38.6981H108.373C108.316 38.8165 108.222 38.9432 108.089 39.0781C107.956 39.213 107.78 39.3279 107.56 39.4226C107.34 39.5173 107.071 39.5646 106.754 39.5646ZM106.882 38.8118C107.213 38.8118 107.492 38.7467 107.72 38.6165C107.949 38.4862 108.122 38.3182 108.238 38.1122C108.357 37.9062 108.416 37.6896 108.416 37.4623V36.6953C108.38 36.7379 108.302 36.777 108.181 36.8125C108.063 36.8456 107.926 36.8752 107.769 36.9013C107.616 36.9249 107.465 36.9462 107.318 36.9652C107.174 36.9817 107.057 36.996 106.967 37.0078C106.749 37.0362 106.545 37.0824 106.356 37.1463C106.169 37.2078 106.018 37.3014 105.902 37.4268C105.788 37.5499 105.731 37.718 105.731 37.9311C105.731 38.2223 105.839 38.4424 106.054 38.5916C106.272 38.7384 106.548 38.8118 106.882 38.8118Z" fill="black"/>
<path d="M24.2517 30.4169C24.564 26.4341 27.4481 24.6589 30.7127 24.6589H31.7545C37.056 24.6754 42.3626 24.6046 47.6641 24.6589L47.6628 34.5817C47.6665 36.2866 47.3334 37.9755 46.6826 39.5513C46.0318 41.1272 45.0763 42.559 43.8707 43.7645C42.6651 44.9701 41.2333 45.9257 39.6575 46.5764C38.0816 47.2272 36.3928 47.5603 34.6878 47.5566H13.975C12.2702 47.5603 10.5814 47.2272 9.00563 46.5766C7.42987 45.9259 5.99812 44.9704 4.79257 43.765C3.58702 42.5596 2.63141 41.1279 1.98058 39.5522C1.32975 37.9765 0.996527 36.2878 1.00003 34.583V1.08353H11.249C12.9541 1.07953 14.6433 1.41239 16.2194 2.06299C17.7955 2.7136 19.2276 3.66913 20.4335 4.87473C21.6393 6.08033 22.5951 7.51224 23.246 9.08826C23.8969 10.6643 24.2301 12.3533 24.2265 14.0585V29.7278C24.2265 34.2251 27.2559 36.214 30.7127 36.214H47.1621" fill="#252525"/>
<path d="M24.2517 30.4169C24.564 26.4341 27.4481 24.6589 30.7127 24.6589H31.7545C37.056 24.6754 42.3626 24.6046 47.6641 24.6589L47.6628 34.5817C47.6665 36.2866 47.3334 37.9755 46.6826 39.5513C46.0318 41.1272 45.0763 42.559 43.8707 43.7645C42.6651 44.9701 41.2333 45.9257 39.6575 46.5764C38.0816 47.2272 36.3928 47.5603 34.6878 47.5566H13.975C12.2702 47.5603 10.5814 47.2272 9.00563 46.5766C7.42987 45.9259 5.99812 44.9704 4.79257 43.765C3.58702 42.5596 2.63141 41.1279 1.98058 39.5522C1.32975 37.9765 0.996527 36.2878 1.00003 34.583V1.08353H11.249C12.9541 1.07953 14.6433 1.41239 16.2194 2.06299C17.7955 2.7136 19.2276 3.66913 20.4335 4.87473C21.6393 6.08033 22.5951 7.51224 23.246 9.08826C23.8969 10.6643 24.2301 12.3533 24.2265 14.0585V29.7278C24.2265 34.2251 27.2559 36.214 30.7127 36.214H47.1621" stroke="#5D8366" stroke-linecap="round" stroke-linejoin="round"/>
<path d="M25.731 47.5566C24.0264 47.5599 22.3379 47.2266 20.7625 46.5758C19.187 45.925 17.7556 44.9694 16.5503 43.764C15.345 42.5586 14.3896 41.1271 13.7389 39.5516C13.0883 37.976 12.7551 36.2875 12.7586 34.5829V17.4722C12.7586 14.7766 10.6193 12.6069 7.92494 12.6069H1" fill="#252525"/>
<path d="M25.731 47.5566C24.0264 47.5599 22.3379 47.2266 20.7625 46.5758C19.187 45.925 17.7556 44.9694 16.5503 43.764C15.345 42.5586 14.3896 41.1271 13.7389 39.5516C13.0883 37.976 12.7551 36.2875 12.7586 34.5829V17.4722C12.7586 14.7766 10.6193 12.6069 7.92494 12.6069H1" stroke="#5D8366" stroke-linecap="round" stroke-linejoin="round"/>
<path d="M40.7213 1.00003C39.0166 0.996528 37.3279 1.32971 35.7523 1.98046C34.1767 2.63121 32.7451 3.58671 31.5397 4.79213C30.3343 5.99754 29.3788 7.42914 28.728 9.00476C28.0773 10.5804 27.7441 12.269 27.7476 13.9737V21.2489H34.8065C36.5114 21.2525 38.2001 20.9195 39.7759 20.2688C41.3517 19.6181 42.7834 18.6627 43.9889 17.4572C45.1945 16.2518 46.1501 14.8201 46.8009 13.2444C47.4518 11.6687 47.785 9.98002 47.7815 8.2752V1.00129L40.7213 1.00003Z" fill="#252525" stroke="#5D8366" stroke-linecap="round" stroke-linejoin="round"/>
<path d="M30.8467 21.2501C32.5516 21.2537 34.2405 20.9206 35.8163 20.2699C37.3922 19.6191 38.824 18.6635 40.0295 17.458C41.2351 16.2524 42.1907 14.8206 42.8414 13.2448C43.4922 11.6689 43.8253 9.98005 43.8216 8.27513V1.00122" fill="#252525"/>
<path d="M30.8467 21.2501C32.5516 21.2537 34.2405 20.9206 35.8163 20.2699C37.3922 19.6191 38.824 18.6635 40.0295 17.458C41.2351 16.2524 42.1907 14.8206 42.8414 13.2448C43.4922 11.6689 43.8253 9.98005 43.8216 8.27513V1.00122" stroke="#5D8366" stroke-linecap="round" stroke-linejoin="round"/>
</svg>
