<svg width="30" height="22" viewBox="0 0 30 22" fill="none" xmlns="http://www.w3.org/2000/svg">
<path d="M0 1.83333C0 1.3471 0.193155 0.880788 0.536971 0.536971C0.880788 0.193155 1.3471 0 1.83333 0H27.5C27.9862 0 28.4525 0.193155 28.7964 0.536971C29.1402 0.880788 29.3333 1.3471 29.3333 1.83333C29.3333 2.31956 29.1402 2.78588 28.7964 3.1297C28.4525 3.47351 27.9862 3.66667 27.5 3.66667H1.83333C1.3471 3.66667 0.880788 3.47351 0.536971 3.1297C0.193155 2.78588 0 2.31956 0 1.83333ZM0 11C0 10.5138 0.193155 10.0475 0.536971 9.70364C0.880788 9.35982 1.3471 9.16667 1.83333 9.16667H27.5C27.9862 9.16667 28.4525 9.35982 28.7964 9.70364C29.1402 10.0475 29.3333 10.5138 29.3333 11C29.3333 11.4862 29.1402 11.9525 28.7964 12.2964C28.4525 12.6402 27.9862 12.8333 27.5 12.8333H1.83333C1.3471 12.8333 0.880788 12.6402 0.536971 12.2964C0.193155 11.9525 0 11.4862 0 11ZM0 20.1667C0 19.6804 0.193155 19.2141 0.536971 18.8703C0.880788 18.5265 1.3471 18.3333 1.83333 18.3333H27.5C27.9862 18.3333 28.4525 18.5265 28.7964 18.8703C29.1402 19.2141 29.3333 19.6804 29.3333 20.1667C29.3333 20.6529 29.1402 21.1192 28.7964 21.463C28.4525 21.8068 27.9862 22 27.5 22H1.83333C1.3471 22 0.880788 21.8068 0.536971 21.463C0.193155 21.1192 0 20.6529 0 20.1667Z" fill="#414638"/>
</svg>
