<svg width="46" height="46" viewBox="0 0 46 46" fill="none" xmlns="http://www.w3.org/2000/svg">
<g clip-path="url(#clip0_573_29)">
<mask id="mask0_573_29" style="mask-type:alpha" maskUnits="userSpaceOnUse" x="-1" y="0" width="47" height="46">
<path fill-rule="evenodd" clip-rule="evenodd" d="M32.6194 45.686C32.9855 45.8287 33.3769 45.8945 33.7695 45.8795C34.1621 45.8644 34.5474 45.7687 34.9014 45.5983L44.372 41.0411C44.8598 40.8063 45.2713 40.4386 45.5593 39.9803C45.8473 39.522 46.0001 38.9917 46 38.4504V7.55022C46.0001 7.00887 45.8474 6.47848 45.5594 6.02009C45.2714 5.5617 44.8598 5.19394 44.372 4.95913L34.9014 0.402612C34.3663 0.145122 33.7643 0.0603442 33.1789 0.160012C32.5934 0.259679 32.0534 0.538863 31.6336 0.958925L13.5032 17.4995L5.60626 11.5048C5.24997 11.2344 4.81032 11.0973 4.36352 11.1171C3.91672 11.1369 3.49094 11.3125 3.15999 11.6133L0.627116 13.9173C0.429729 14.0968 0.271987 14.3155 0.16398 14.5595C0.0559738 14.8035 8.14396e-05 15.0673 -0.000121516 15.3342C-0.000324471 15.601 0.0551665 15.8649 0.162802 16.1091C0.270437 16.3532 0.427846 16.5722 0.62496 16.752L7.47357 23.0001L0.625319 29.2486C0.428313 29.4284 0.270998 29.6474 0.163429 29.8915C0.0558612 30.1356 0.000406306 30.3995 0.00060924 30.6662C0.000812175 30.933 0.0566685 31.1968 0.164608 31.4407C0.272547 31.6847 0.430196 31.9034 0.627476 32.083L3.16035 34.3869C3.49125 34.6878 3.91701 34.8634 4.36381 34.8833C4.81061 34.9032 5.25029 34.7661 5.60662 34.4958L13.5035 28.5014L31.634 45.0417C31.9146 45.3222 32.2499 45.5416 32.6194 45.686ZM34.5068 12.5578L20.7503 23.0001L34.5072 33.4428L34.5068 12.5578Z" fill="white"/>
</mask>
<g mask="url(#mask0_573_29)">
<path d="M44.3725 4.96665L34.8944 0.402591C34.359 0.144771 33.7568 0.0598138 33.171 0.159488C32.5853 0.259163 32.045 0.538535 31.6251 0.958904L0.597401 29.2485C0.400247 29.4283 0.242799 29.6473 0.135136 29.8914C0.0274724 30.1355 -0.0280344 30.3994 -0.0278315 30.6662C-0.0276285 30.933 0.0282798 31.1968 0.136315 31.4408C0.244349 31.6848 0.40213 31.9035 0.599558 32.0829L3.13387 34.3869C3.46487 34.6881 3.89091 34.864 4.33803 34.8839C4.78516 34.9038 5.22513 34.7664 5.58157 34.4958L42.9462 6.15008C44.1996 5.19917 46.0001 6.09329 46.0001 7.66664V7.55667C46.0001 7.01547 45.8474 6.48527 45.5595 6.02702C45.2715 5.56878 44.8601 5.20146 44.3725 4.96665Z" fill="#0065A9"/>
<g filter="url(#filter0_d_573_29)">
<path d="M44.3724 41.034L34.8942 45.5973C34.359 45.8552 33.7568 45.9403 33.171 45.8408C32.5853 45.7412 32.045 45.462 31.625 45.0417L0.597279 16.7517C0.400125 16.572 0.242677 16.353 0.135014 16.1089C0.0273503 15.8648 -0.0281565 15.6009 -0.0279535 15.334C-0.0277506 15.0672 0.0281577 14.8034 0.136192 14.5595C0.244227 14.3155 0.402008 14.0968 0.599436 13.9173L3.13375 11.6134C3.46475 11.3121 3.89079 11.1363 4.33791 11.1164C4.78504 11.0965 5.22501 11.2338 5.58145 11.5045L42.946 39.8498C44.1995 40.8011 46 39.907 46 38.3336V38.4436C46 38.9848 45.8473 39.515 45.5593 39.9732C45.2714 40.4315 44.86 40.7992 44.3724 41.034Z" fill="#007ACC"/>
</g>
<g filter="url(#filter1_d_573_29)">
<path d="M34.8946 45.5983C34.3591 45.8556 33.7569 45.9403 33.1712 45.8405C32.5855 45.7408 32.0452 45.4617 31.625 45.0416C32.6859 46.1025 34.5 45.351 34.5 43.8506V2.14912C34.5 0.648732 32.6859 -0.102721 31.625 0.958513C32.0452 0.538471 32.5855 0.259302 33.1712 0.159582C33.7569 0.0598619 34.3591 0.144514 34.8946 0.401841L44.371 4.95944C44.8589 5.1941 45.2707 5.56179 45.5589 6.02019C45.8471 6.47859 46 7.00906 46 7.55053V38.4503C46 38.9918 45.8471 39.5223 45.5589 39.9807C45.2707 40.4391 44.8589 40.8068 44.371 41.0414L34.8946 45.5983Z" fill="#1F9CF0"/>
</g>
<path opacity="0.25" fill-rule="evenodd" clip-rule="evenodd" d="M32.5918 45.686C32.9578 45.8286 33.3492 45.8945 33.7417 45.8794C34.1342 45.8643 34.5194 45.7686 34.8734 45.5983L44.344 41.0411C44.8318 40.8063 45.2434 40.4385 45.5314 39.9801C45.8194 39.5218 45.9721 38.9914 45.972 38.45V7.55022C45.9721 7.00887 45.8194 6.47848 45.5314 6.02009C45.2434 5.5617 44.8318 5.19394 44.344 4.95913L34.8734 0.402612C34.3383 0.145122 33.7363 0.0603442 33.1509 0.160012C32.5654 0.259679 32.0254 0.538863 31.6056 0.958925L13.4752 17.4995L5.57825 11.5051C5.22197 11.2348 4.78231 11.0977 4.33551 11.1175C3.88871 11.1373 3.46293 11.3128 3.13199 11.6137L0.59911 13.9176C0.401772 14.0972 0.244074 14.3159 0.136099 14.5599C0.0281245 14.8039 -0.0277506 15.0677 -0.0279535 15.3345C-0.0281565 15.6013 0.0273172 15.8652 0.134921 16.1094C0.242524 16.3535 0.399889 16.5725 0.596954 16.7524L7.44556 23.0001L0.597313 29.2482C0.400199 29.428 0.24279 29.647 0.135155 29.8912C0.0275196 30.1353 -0.0279714 30.3992 -0.0277684 30.6661C-0.0275654 30.9329 0.0283269 31.1967 0.136333 31.4407C0.24434 31.6847 0.402082 31.9034 0.599469 32.083L3.13234 34.3869C3.46325 34.6878 3.889 34.8634 4.3358 34.8833C4.78261 34.9032 5.22228 34.7661 5.57861 34.4958L13.4759 28.5011L31.6063 45.0417C31.8868 45.3221 32.2223 45.5415 32.5918 45.686ZM34.4792 12.5574L20.7223 23.0001L34.4792 33.4425V12.5574Z" fill="url(#paint0_linear_573_29)"/>
</g>
</g>
<defs>
<filter id="filter0_d_573_29" x="-8.36195" y="2.7805" width="62.696" height="51.4348" filterUnits="userSpaceOnUse" color-interpolation-filters="sRGB">
<feFlood flood-opacity="0" result="BackgroundImageFix"/>
<feColorMatrix in="SourceAlpha" type="matrix" values="0 0 0 0 0 0 0 0 0 0 0 0 0 0 0 0 0 0 127 0" result="hardAlpha"/>
<feOffset/>
<feGaussianBlur stdDeviation="4.167"/>
<feColorMatrix type="matrix" values="0 0 0 0 0 0 0 0 0 0 0 0 0 0 0 0 0 0 0.25 0"/>
<feBlend mode="overlay" in2="BackgroundImageFix" result="effect1_dropShadow_573_29"/>
<feBlend mode="normal" in="SourceGraphic" in2="effect1_dropShadow_573_29" result="shape"/>
</filter>
<filter id="filter1_d_573_29" x="23.291" y="-8.2151" width="31.043" height="62.4305" filterUnits="userSpaceOnUse" color-interpolation-filters="sRGB">
<feFlood flood-opacity="0" result="BackgroundImageFix"/>
<feColorMatrix in="SourceAlpha" type="matrix" values="0 0 0 0 0 0 0 0 0 0 0 0 0 0 0 0 0 0 127 0" result="hardAlpha"/>
<feOffset/>
<feGaussianBlur stdDeviation="4.167"/>
<feColorMatrix type="matrix" values="0 0 0 0 0 0 0 0 0 0 0 0 0 0 0 0 0 0 0.25 0"/>
<feBlend mode="overlay" in2="BackgroundImageFix" result="effect1_dropShadow_573_29"/>
<feBlend mode="normal" in="SourceGraphic" in2="effect1_dropShadow_573_29" result="shape"/>
</filter>
<linearGradient id="paint0_linear_573_29" x1="22.972" y1="0.118706" x2="22.972" y2="45.8815" gradientUnits="userSpaceOnUse">
<stop stop-color="white"/>
<stop offset="1" stop-color="white" stop-opacity="0"/>
</linearGradient>
<clipPath id="clip0_573_29">
<rect width="46" height="46" fill="white"/>
</clipPath>
</defs>
</svg>
